<svg width="25" height="24" viewBox="0 0 25 24" fill="none" xmlns="http://www.w3.org/2000/svg">
<g clip-path="url(#clip0_163_1090)">
<path d="M12.6552 6.44V9.77M12.6752 2C8.99517 2 6.01517 4.98 6.01517 8.66V10.76C6.01517 11.44 5.73517 12.46 5.38517 13.04L4.11517 15.16C3.33517 16.47 3.87517 17.93 5.31517 18.41C10.0965 20 15.2639 20 20.0452 18.41C20.3607 18.3048 20.6485 18.13 20.8874 17.8986C21.1262 17.6671 21.3101 17.385 21.4253 17.073C21.5404 16.761 21.5841 16.4271 21.5529 16.096C21.5217 15.7649 21.4166 15.445 21.2452 15.16L19.9752 13.04C19.6252 12.46 19.3452 11.43 19.3452 10.76V8.66C19.3352 5 16.3352 2 12.6752 2Z" stroke="white" stroke-width="1.5" stroke-miterlimit="10" stroke-linecap="round"/>
<path d="M15.9842 18.8203C15.9842 20.6503 14.4842 22.1503 12.6542 22.1503C11.7442 22.1503 10.9042 21.7703 10.3042 21.1703C9.70422 20.5703 9.32422 19.7303 9.32422 18.8203" stroke="white" stroke-width="1.5" stroke-miterlimit="10"/>
<g filter="url(#filter0_d_163_1090)">
<rect x="15.6543" y="-1" width="8" height="8" rx="4" fill="#FF2200"/>
<rect x="15.6543" y="-1" width="8" height="8" rx="4" stroke="#0E0E0E" stroke-width="2"/>
</g>
</g>
<defs>
<filter id="filter0_d_163_1090" x="-15.3457" y="-29" width="98" height="98" filterUnits="userSpaceOnUse" color-interpolation-filters="sRGB">
<feFlood flood-opacity="0" result="BackgroundImageFix"/>
<feColorMatrix in="SourceAlpha" type="matrix" values="0 0 0 0 0 0 0 0 0 0 0 0 0 0 0 0 0 0 127 0" result="hardAlpha"/>
<feMorphology radius="4" operator="dilate" in="SourceAlpha" result="effect1_dropShadow_163_1090"/>
<feOffset dx="14" dy="17"/>
<feGaussianBlur stdDeviation="20"/>
<feColorMatrix type="matrix" values="0 0 0 0 0.439216 0 0 0 0 0.564706 0 0 0 0 0.690196 0 0 0 0.08 0"/>
<feBlend mode="normal" in2="BackgroundImageFix" result="effect1_dropShadow_163_1090"/>
<feBlend mode="normal" in="SourceGraphic" in2="effect1_dropShadow_163_1090" result="shape"/>
</filter>
<clipPath id="clip0_163_1090">
<rect width="24" height="24" fill="white" transform="translate(0.654297)"/>
</clipPath>
</defs>
</svg>
