<svg width="21" height="21" viewBox="0 0 21 21" fill="none" xmlns="http://www.w3.org/2000/svg">
<path fill-rule="evenodd" clip-rule="evenodd" d="M9.88184 3.14258C10.8123 3.14258 11.7336 3.32584 12.5931 3.68189C13.4527 4.03794 14.2338 4.55982 14.8917 5.21772C15.5496 5.87562 16.0714 6.65666 16.4275 7.51624C16.7835 8.37583 16.9668 9.29713 16.9668 10.2275C16.9668 11.158 16.7835 12.0793 16.4275 12.9388C16.0714 13.7984 15.5496 14.5795 14.8917 15.2374C14.2338 15.8953 13.4527 16.4171 12.5931 16.7732C11.7336 17.1292 10.8123 17.3125 9.88184 17.3125C8.00279 17.3125 6.2007 16.5661 4.87201 15.2374C3.54332 13.9087 2.79687 12.1066 2.79688 10.2275C2.79687 8.34849 3.54332 6.54641 4.87201 5.21772C6.2007 3.88903 8.00279 3.14258 9.88184 3.14258V3.14258Z" stroke="white" stroke-width="1.24138" stroke-linecap="round" stroke-linejoin="round"/>
<path fill-rule="evenodd" clip-rule="evenodd" d="M17.0197 16.1973C17.3294 16.1974 17.6264 16.3205 17.8453 16.5396C18.0642 16.7586 18.1871 17.0557 18.187 17.3654C18.1869 17.6751 18.0638 17.9721 17.8447 18.191C17.6256 18.4099 17.3286 18.5328 17.0189 18.5327C16.7092 18.5326 16.4122 18.4095 16.1933 18.1904C15.9744 17.9713 15.8515 17.6743 15.8516 17.3646C15.8517 17.0549 15.9748 16.7579 16.1939 16.539C16.4129 16.3201 16.71 16.1972 17.0197 16.1973V16.1973Z" stroke="white" stroke-width="1.24138" stroke-linecap="round" stroke-linejoin="round"/>
</svg>
