<svg width="26" height="26" viewBox="0 0 26 26" fill="none" xmlns="http://www.w3.org/2000/svg">
<g opacity="0.2">
<path fill-rule="evenodd" clip-rule="evenodd" d="M4.76951 12.5906C5.97851 13.0055 6.94159 14.0174 7.34459 15.3L7.38793 15.43C7.84943 16.7907 7.66201 18.2554 6.88851 19.3539C6.74768 19.5532 6.77909 19.7915 6.92751 19.9042L9.17218 21.6094C9.25126 21.6689 9.32818 21.6689 9.37584 21.6635C9.43001 21.6549 9.50909 21.6256 9.57301 21.5346L9.82326 21.1793C10.5697 20.1209 11.7722 19.4676 13.0418 19.4308C14.4675 19.4015 15.748 20.0548 16.5453 21.2064L16.6732 21.3916C16.7371 21.4826 16.8151 21.5129 16.8703 21.5216C16.918 21.5314 16.996 21.5281 17.074 21.4674L19.3068 19.7829C19.4628 19.6659 19.4974 19.4156 19.3815 19.2477L19.0998 18.8414C18.374 17.7928 18.1584 16.4321 18.5235 15.2025C18.92 13.8635 19.9286 12.804 21.2232 12.3707L21.4409 12.297C21.6153 12.2396 21.7096 12.0229 21.6478 11.8236L20.7953 9.09253C20.7552 8.9647 20.6728 8.90728 20.6273 8.88345C20.5623 8.84986 20.4919 8.84445 20.4248 8.8672L20.0564 8.98961C18.7965 9.40886 17.4066 9.18136 16.3395 8.37861L16.2225 8.29086C15.2085 7.5282 14.6051 6.29861 14.6094 5.00295L14.6116 4.69961C14.6116 4.55553 14.5433 4.46561 14.5022 4.42445C14.4632 4.38436 14.3971 4.3367 14.3039 4.3367L11.5447 4.33345C11.3757 4.33345 11.2381 4.49486 11.237 4.6942L11.2359 4.95636C11.2305 6.27261 10.6141 7.52495 9.58709 8.3082L9.44734 8.41436C8.31743 9.27345 6.84409 9.51611 5.50943 9.06111C5.45851 9.04378 5.41084 9.04703 5.36534 9.07086C5.33068 9.0882 5.26784 9.13261 5.23751 9.2312L4.35243 12.0435C4.28851 12.2483 4.39359 12.4617 4.59184 12.5299L4.76951 12.5906ZM9.33143 23.8334C8.80493 23.8334 8.29359 23.6623 7.86243 23.334L5.61776 21.6299C4.54526 20.8174 4.30801 19.2542 5.08801 18.1459C5.49318 17.5718 5.57659 16.834 5.33826 16.1342L5.27868 15.9522C5.08043 15.3217 4.62759 14.832 4.06751 14.6403H4.06643L3.88984 14.5785C2.57034 14.1268 1.86618 12.7282 2.28543 11.3935L3.16943 8.58228C3.36984 7.94636 3.80209 7.43286 4.38709 7.13711C4.95909 6.84894 5.60584 6.80453 6.21034 7.01145C6.85926 7.23244 7.57968 7.1122 8.13543 6.6897L8.27518 6.58353C8.76918 6.20653 9.06709 5.59444 9.06926 4.94769L9.07034 4.68661C9.07576 3.29561 10.1862 2.16678 11.5436 2.16678H11.5479L14.3072 2.17003C14.9593 2.17111 15.5747 2.42895 16.0383 2.89586C16.5183 3.37795 16.7804 4.02253 16.7783 4.71045L16.7761 5.0127C16.7739 5.62586 17.0545 6.20545 17.5279 6.56078L17.6438 6.64853C18.1411 7.02228 18.7889 7.12953 19.3707 6.93453L19.7379 6.81211C20.363 6.60411 21.0282 6.65503 21.6143 6.95511C22.2155 7.26278 22.6597 7.79253 22.8633 8.44794L23.7159 11.179C24.1276 12.4985 23.4148 13.922 22.1288 14.3521L21.9111 14.4247C21.2871 14.6349 20.7963 15.1549 20.6003 15.8179C20.4204 16.4256 20.5244 17.094 20.8808 17.6075L21.1625 18.0138C21.936 19.1318 21.689 20.7004 20.6122 21.5119L18.3794 23.1975C17.8432 23.6027 17.1856 23.7663 16.5258 23.6612C15.8607 23.5539 15.28 23.1856 14.8911 22.6244L14.7633 22.4381C14.3841 21.8921 13.7774 21.5606 13.1415 21.5964C12.5045 21.6137 11.9542 21.9159 11.5945 22.4273L11.3443 22.7826C10.9521 23.3384 10.3703 23.7013 9.70843 23.8053C9.58168 23.8248 9.45601 23.8334 9.33143 23.8334V23.8334ZM12.9998 11.375C12.1039 11.375 11.3748 12.1041 11.3748 13C11.3748 13.8959 12.1039 14.625 12.9998 14.625C13.8957 14.625 14.6248 13.8959 14.6248 13C14.6248 12.1041 13.8957 11.375 12.9998 11.375M12.9998 16.7917C10.909 16.7917 9.20814 15.0908 9.20814 13C9.20814 10.9092 10.909 9.20834 12.9998 9.20834C15.0906 9.20834 16.7915 10.9092 16.7915 13C16.7915 15.0908 15.0906 16.7917 12.9998 16.7917" fill="white"/>
</g>
</svg>
