<svg width="26" height="26" viewBox="0 0 26 26" fill="none" xmlns="http://www.w3.org/2000/svg">
<path fill-rule="evenodd" clip-rule="evenodd" d="M20.5835 22.6297C20.5835 23.2941 20.0647 23.8334 19.4228 23.8334C18.7809 23.8334 18.2621 23.2941 18.2621 22.6297C18.2621 19.311 15.6586 16.6111 12.4585 16.6111C9.25841 16.6111 6.65492 19.311 6.65492 22.6297C6.65492 23.2941 6.13609 23.8334 5.49421 23.8334C4.85234 23.8334 4.3335 23.2941 4.3335 22.6297C4.3335 17.9834 7.9793 14.2037 12.4585 14.2037C16.9377 14.2037 20.5835 17.9834 20.5835 22.6297M12.4585 4.57409C13.7388 4.57409 14.7799 5.65382 14.7799 6.9815C14.7799 8.30919 13.7388 9.38891 12.4585 9.38891C11.1782 9.38891 10.1371 8.30919 10.1371 6.9815C10.1371 5.65382 11.1782 4.57409 12.4585 4.57409M12.4585 11.7963C15.019 11.7963 17.1014 9.63687 17.1014 6.9815C17.1014 4.32613 15.019 2.16669 12.4585 2.16669C9.89796 2.16669 7.81564 4.32613 7.81564 6.9815C7.81564 9.63687 9.89796 11.7963 12.4585 11.7963" fill="white"/>
</svg>
