<svg width="20" height="20" viewBox="0 0 20 20" fill="none" xmlns="http://www.w3.org/2000/svg">
<path d="M18.1248 6.66576C18.1248 7.00742 17.8415 7.29076 17.4998 7.29076H2.49981C2.15814 7.29076 1.87481 7.00742 1.87481 6.66576C1.87481 6.32409 2.15814 6.04076 2.49981 6.04076H3.34981L3.66647 4.53242C3.96647 3.07409 4.59147 1.73242 7.07481 1.73242H12.9248C15.4081 1.73242 16.0331 3.07409 16.3331 4.53242L16.6498 6.04076H17.4998C17.8415 6.04076 18.1248 6.32409 18.1248 6.66576ZM18.4848 11.3841C18.3598 10.0091 17.9931 8.54242 15.3181 8.54242H4.68397C2.00897 8.54242 1.65064 10.0091 1.51731 11.3841L1.05064 16.4591C0.992308 17.0924 1.20064 17.7258 1.63397 18.2008C2.07564 18.6841 2.70064 18.9591 3.36731 18.9591H4.93397C6.28397 18.9591 6.54231 18.1841 6.70897 17.6758L6.87564 17.1758C7.06731 16.6008 7.11731 16.4591 7.86731 16.4591H12.134C12.884 16.4591 12.909 16.5424 13.1256 17.1758L13.2923 17.6758C13.459 18.1841 13.7173 18.9591 15.0673 18.9591H16.634C17.2923 18.9591 17.9256 18.6841 18.3673 18.2008C18.8006 17.7258 19.009 17.0924 18.9506 16.4591L18.4848 11.3841ZM7.50147 13.1258H5.00147C4.65981 13.1258 4.37647 12.8424 4.37647 12.5008C4.37647 12.1591 4.65981 11.8758 5.00147 11.8758H7.50147C7.84314 11.8758 8.12647 12.1591 8.12647 12.5008C8.12647 12.8424 7.84314 13.1258 7.50147 13.1258ZM15.0015 13.1258H12.5015C12.1598 13.1258 11.8765 12.8424 11.8765 12.5008C11.8765 12.1591 12.1598 11.8758 12.5015 11.8758H15.0015C15.3431 11.8758 15.6265 12.1591 15.6265 12.5008C15.6265 12.8424 15.3431 13.1258 15.0015 13.1258Z" fill="#757575"/>
</svg>
