<svg width="20" height="20" viewBox="0 0 20 20" fill="none" xmlns="http://www.w3.org/2000/svg">
<path d="M14.2893 8.33333C14.5104 8.33333 14.7223 8.24554 14.8786 8.08926C15.0349 7.93298 15.1227 7.72101 15.1227 7.5C15.1227 7.27899 15.0349 7.06703 14.8786 6.91074C14.7223 6.75446 14.5104 6.66667 14.2893 6.66667C14.0683 6.66667 13.8564 6.75446 13.7001 6.91074C13.5438 7.06703 13.456 7.27899 13.456 7.5C13.456 7.72101 13.5438 7.93298 13.7001 8.08926C13.8564 8.24554 14.0683 8.33333 14.2893 8.33333ZM14.2893 13.3333C14.5104 13.3333 14.7223 13.2455 14.8786 13.0893C15.0349 12.933 15.1227 12.721 15.1227 12.5C15.1227 12.279 15.0349 12.067 14.8786 11.9107C14.7223 11.7545 14.5104 11.6667 14.2893 11.6667C14.0683 11.6667 13.8564 11.7545 13.7001 11.9107C13.5438 12.067 13.456 12.279 13.456 12.5C13.456 12.721 13.5438 12.933 13.7001 13.0893C13.8564 13.2455 14.0683 13.3333 14.2893 13.3333ZM16.4577 10.8333C16.6787 10.8333 16.8907 10.7455 17.0469 10.5893C17.2032 10.433 17.291 10.221 17.291 10C17.291 9.77899 17.2032 9.56703 17.0469 9.41075C16.8907 9.25446 16.6787 9.16667 16.4577 9.16667C16.2367 9.16667 16.0247 9.25446 15.8684 9.41075C15.7121 9.56703 15.6243 9.77899 15.6243 10C15.6243 10.221 15.7121 10.433 15.8684 10.5893C16.0247 10.7455 16.2367 10.8333 16.4577 10.8333ZM5.66518 8.33333C5.8862 8.33333 6.09816 8.24554 6.25444 8.08926C6.41072 7.93298 6.49852 7.72101 6.49852 7.5C6.49852 7.27899 6.41072 7.06703 6.25444 6.91074C6.09816 6.75446 5.8862 6.66667 5.66518 6.66667C5.44417 6.66667 5.23221 6.75446 5.07593 6.91074C4.91965 7.06703 4.83185 7.27899 4.83185 7.5C4.83185 7.72101 4.91965 7.93298 5.07593 8.08926C5.23221 8.24554 5.44417 8.33333 5.66518 8.33333ZM5.66518 13.3333C5.8862 13.3333 6.09816 13.2455 6.25444 13.0893C6.41072 12.933 6.49852 12.721 6.49852 12.5C6.49852 12.279 6.41072 12.067 6.25444 11.9107C6.09816 11.7545 5.8862 11.6667 5.66518 11.6667C5.44417 11.6667 5.23221 11.7545 5.07593 11.9107C4.91965 12.067 4.83185 12.279 4.83185 12.5C4.83185 12.721 4.91965 12.933 5.07593 13.0893C5.23221 13.2455 5.44417 13.3333 5.66518 13.3333ZM3.49935 10.8333C3.72036 10.8333 3.93232 10.7455 4.0886 10.5893C4.24488 10.433 4.33268 10.221 4.33268 10C4.33268 9.77899 4.24488 9.56703 4.0886 9.41075C3.93232 9.25446 3.72036 9.16667 3.49935 9.16667C3.27833 9.16667 3.06637 9.25446 2.91009 9.41075C2.75381 9.56703 2.66602 9.77899 2.66602 10C2.66602 10.221 2.75381 10.433 2.91009 10.5893C3.06637 10.7455 3.27833 10.8333 3.49935 10.8333ZM13.2477 5.16667C13.4687 5.16667 13.6807 5.07887 13.8369 4.92259C13.9932 4.76631 14.081 4.55435 14.081 4.33333C14.081 4.11232 13.9932 3.90036 13.8369 3.74408C13.6807 3.5878 13.4687 3.5 13.2477 3.5C13.0267 3.5 12.8147 3.5878 12.6584 3.74408C12.5021 3.90036 12.4143 4.11232 12.4143 4.33333C12.4143 4.55435 12.5021 4.76631 12.6584 4.92259C12.8147 5.07887 13.0267 5.16667 13.2477 5.16667ZM6.74935 5.16667C6.97036 5.16667 7.18232 5.07887 7.3386 4.92259C7.49488 4.76631 7.58268 4.55435 7.58268 4.33333C7.58268 4.11232 7.49488 3.90036 7.3386 3.74408C7.18232 3.5878 6.97036 3.5 6.74935 3.5C6.52834 3.5 6.31637 3.5878 6.16009 3.74408C6.00381 3.90036 5.91602 4.11232 5.91602 4.33333C5.91602 4.55435 6.00381 4.76631 6.16009 4.92259C6.31637 5.07887 6.52834 5.16667 6.74935 5.16667ZM10.0402 5.83333C10.2612 5.83333 10.4732 5.74554 10.6294 5.58926C10.7857 5.43298 10.8735 5.22101 10.8735 5C10.8735 4.77899 10.7857 4.56703 10.6294 4.41074C10.4732 4.25446 10.2612 4.16667 10.0402 4.16667C9.81917 4.16667 9.60721 4.25446 9.45093 4.41074C9.29465 4.56703 9.20685 4.77899 9.20685 5C9.20685 5.22101 9.29465 5.43298 9.45093 5.58926C9.60721 5.74554 9.81917 5.83333 10.0402 5.83333ZM13.2477 16.6667C13.4687 16.6667 13.6807 16.5789 13.8369 16.4226C13.9932 16.2663 14.081 16.0543 14.081 15.8333C14.081 15.6123 13.9932 15.4004 13.8369 15.2441C13.6807 15.0878 13.4687 15 13.2477 15C13.0267 15 12.8147 15.0878 12.6584 15.2441C12.5021 15.4004 12.4143 15.6123 12.4143 15.8333C12.4143 16.0543 12.5021 16.2663 12.6584 16.4226C12.8147 16.5789 13.0267 16.6667 13.2477 16.6667ZM6.74935 16.6667C6.97036 16.6667 7.18232 16.5789 7.3386 16.4226C7.49488 16.2663 7.58268 16.0543 7.58268 15.8333C7.58268 15.6123 7.49488 15.4004 7.3386 15.2441C7.18232 15.0878 6.97036 15 6.74935 15C6.52834 15 6.31637 15.0878 6.16009 15.2441C6.00381 15.4004 5.91602 15.6123 5.91602 15.8333C5.91602 16.0543 6.00381 16.2663 6.16009 16.4226C6.31637 16.5789 6.52834 16.6667 6.74935 16.6667ZM10.0402 16C10.2612 16 10.4732 15.9122 10.6294 15.7559C10.7857 15.5996 10.8735 15.3877 10.8735 15.1667C10.8735 14.9457 10.7857 14.7337 10.6294 14.5774C10.4732 14.4211 10.2612 14.3333 10.0402 14.3333C9.81917 14.3333 9.60721 14.4211 9.45093 14.5774C9.29465 14.7337 9.20685 14.9457 9.20685 15.1667C9.20685 15.3877 9.29465 15.5996 9.45093 15.7559C9.60721 15.9122 9.81917 16 10.0402 16ZM11.4577 8.54167C11.7339 8.54167 11.9989 8.43192 12.1943 8.23657C12.3896 8.04122 12.4993 7.77627 12.4993 7.5C12.4993 7.22373 12.3896 6.95878 12.1943 6.76343C11.9989 6.56808 11.7339 6.45833 11.4577 6.45833C11.1814 6.45833 10.9165 6.56808 10.7211 6.76343C10.5258 6.95878 10.416 7.22373 10.416 7.5C10.416 7.77627 10.5258 8.04122 10.7211 8.23657C10.9165 8.43192 11.1814 8.54167 11.4577 8.54167ZM8.54102 8.54167C8.81728 8.54167 9.08223 8.43192 9.27759 8.23657C9.47294 8.04122 9.58268 7.77627 9.58268 7.5C9.58268 7.22373 9.47294 6.95878 9.27759 6.76343C9.08223 6.56808 8.81728 6.45833 8.54102 6.45833C8.26475 6.45833 7.9998 6.56808 7.80445 6.76343C7.6091 6.95878 7.49935 7.22373 7.49935 7.5C7.49935 7.77627 7.6091 8.04122 7.80445 8.23657C7.9998 8.43192 8.26475 8.54167 8.54102 8.54167ZM12.916 11.0417C13.1923 11.0417 13.4572 10.9319 13.6526 10.7366C13.8479 10.5412 13.9577 10.2763 13.9577 10C13.9577 9.72373 13.8479 9.45878 13.6526 9.26343C13.4572 9.06808 13.1923 8.95833 12.916 8.95833C12.6397 8.95833 12.3748 9.06808 12.1794 9.26343C11.9841 9.45878 11.8743 9.72373 11.8743 10C11.8743 10.2763 11.9841 10.5412 12.1794 10.7366C12.3748 10.9319 12.6397 11.0417 12.916 11.0417ZM7.08268 11.0417C7.35895 11.0417 7.6239 10.9319 7.81925 10.7366C8.0146 10.5412 8.12435 10.2763 8.12435 10C8.12435 9.72373 8.0146 9.45878 7.81925 9.26343C7.6239 9.06808 7.35895 8.95833 7.08268 8.95833C6.80642 8.95833 6.54146 9.06808 6.34611 9.26343C6.15076 9.45878 6.04102 9.72373 6.04102 10C6.04102 10.2763 6.15076 10.5412 6.34611 10.7366C6.54146 10.9319 6.80642 11.0417 7.08268 11.0417ZM8.54102 13.5417C8.81728 13.5417 9.08223 13.4319 9.27759 13.2366C9.47294 13.0412 9.58268 12.7763 9.58268 12.5C9.58268 12.2237 9.47294 11.9588 9.27759 11.7634C9.08223 11.5681 8.81728 11.4583 8.54102 11.4583C8.26475 11.4583 7.9998 11.5681 7.80445 11.7634C7.6091 11.9588 7.49935 12.2237 7.49935 12.5C7.49935 12.7763 7.6091 13.0412 7.80445 13.2366C7.9998 13.4319 8.26475 13.5417 8.54102 13.5417ZM11.4577 13.5417C11.7339 13.5417 11.9989 13.4319 12.1943 13.2366C12.3896 13.0412 12.4993 12.7763 12.4993 12.5C12.4993 12.2237 12.3896 11.9588 12.1943 11.7634C11.9989 11.5681 11.7339 11.4583 11.4577 11.4583C11.1814 11.4583 10.9165 11.5681 10.7211 11.7634C10.5258 11.9588 10.416 12.2237 10.416 12.5C10.416 12.7763 10.5258 13.0412 10.7211 13.2366C10.9165 13.4319 11.1814 13.5417 11.4577 13.5417Z" fill="#757575"/>
<path d="M10.0009 2.77526C9.59258 2.77526 9.26758 2.45026 9.26758 2.04193C9.26758 1.63359 9.59258 1.30859 10.0009 1.30859C10.4092 1.30859 10.7342 1.63359 10.7342 2.04193C10.7342 2.45026 10.4092 2.77526 10.0009 2.77526Z" fill="#757575"/>
<path d="M14.3755 3.00195C14.0255 3.00195 13.7422 2.71862 13.7422 2.37695C13.7422 2.03529 14.0255 1.75195 14.3672 1.75195C14.7089 1.75195 15.0005 2.03529 15.0005 2.37695C15.0005 2.71862 14.7255 3.00195 14.3755 3.00195Z" fill="#757575"/>
<path d="M5.625 3.00195C5.45924 3.00195 5.30027 2.93611 5.18306 2.81889C5.06585 2.70168 5 2.54271 5 2.37695C5 2.21119 5.06585 2.05222 5.18306 1.93501C5.30027 1.8178 5.45924 1.75195 5.625 1.75195H5.63333C5.975 1.75195 6.25833 2.03529 6.25833 2.37695C6.25833 2.71862 5.975 3.00195 5.625 3.00195Z" fill="#757575"/>
<path d="M10.0009 18.6503C9.59258 18.6503 9.26758 18.3253 9.26758 17.9169C9.26758 17.5086 9.59258 17.1836 10.0009 17.1836C10.4092 17.1836 10.7342 17.5086 10.7342 17.9169C10.7342 18.3253 10.4092 18.6503 10.0009 18.6503Z" fill="#757575"/>
<path d="M14.3755 18.2109C14.0255 18.2109 13.7422 17.9276 13.7422 17.5859C13.7422 17.2443 14.0255 16.9609 14.3672 16.9609C14.7089 16.9609 15.0005 17.2443 15.0005 17.5859C15.0005 17.9276 14.7255 18.2109 14.3755 18.2109Z" fill="#757575"/>
<path d="M5.625 18.2109C5.45924 18.2109 5.30027 18.1451 5.18306 18.0279C5.06585 17.9107 5 17.7517 5 17.5859C5 17.4202 5.06585 17.2612 5.18306 17.144C5.30027 17.0268 5.45924 16.9609 5.625 16.9609H5.63333C5.975 16.9609 6.25833 17.2443 6.25833 17.5859C6.25833 17.9276 5.975 18.2109 5.625 18.2109Z" fill="#757575"/>
<path d="M1.29193 10.7342C1.09887 10.7343 0.913596 10.6581 0.776306 10.5224C0.639017 10.3867 0.560788 10.2023 0.558594 10.0092V10.0009C0.558594 9.60091 0.883594 9.26758 1.29193 9.26758C1.70026 9.26758 2.02526 9.59258 2.02526 10.0009C2.02526 10.4092 1.69193 10.7342 1.29193 10.7342Z" fill="#757575"/>
<path d="M3.125 14.7896C2.78333 14.7896 2.5 14.5146 2.5 14.1646V14.1562C2.5 13.8146 2.78333 13.5312 3.125 13.5312C3.46667 13.5312 3.75 13.8146 3.75 14.1562C3.75 14.4979 3.46667 14.7896 3.125 14.7896Z" fill="#757575"/>
<path d="M3.125 6.46875C2.78333 6.46875 2.5 6.18542 2.5 5.84375C2.5 5.50208 2.78333 5.21875 3.125 5.21875C3.46667 5.21875 3.75 5.49375 3.75 5.83542V5.84375C3.75 6.18542 3.46667 6.46875 3.125 6.46875Z" fill="#757575"/>
<path d="M18.7509 10.7333C18.5579 10.7333 18.3726 10.6572 18.2353 10.5215C18.098 10.3857 18.0198 10.2014 18.0176 10.0083V9.99998C18.0266 9.81153 18.1077 9.63378 18.2443 9.50359C18.3808 9.37341 18.5623 9.30078 18.7509 9.30078C18.9396 9.30078 19.121 9.37341 19.2575 9.50359C19.3941 9.63378 19.4753 9.81153 19.4842 9.99998C19.4842 10.4083 19.1509 10.7333 18.7509 10.7333Z" fill="#757575"/>
<path d="M16.918 14.7896C16.5763 14.7896 16.293 14.5146 16.293 14.1646V14.1562C16.293 13.8146 16.5763 13.5312 16.918 13.5312C17.2596 13.5312 17.543 13.8146 17.543 14.1562C17.543 14.4979 17.2596 14.7896 16.918 14.7896Z" fill="#757575"/>
<path d="M16.918 6.46875C16.5763 6.46875 16.293 6.18542 16.293 5.84375C16.293 5.50208 16.5763 5.21875 16.918 5.21875C17.2596 5.21875 17.543 5.49375 17.543 5.84375V5.85208C17.543 6.18542 17.2596 6.46875 16.918 6.46875Z" fill="#757575"/>
</svg>
