<svg width="20" height="20" viewBox="0 0 20 20" fill="none" xmlns="http://www.w3.org/2000/svg">
<path d="M15.5577 1.66602H13.9743C12.1577 1.66602 11.1993 2.62435 11.1993 4.44102V6.02435C11.1993 7.84102 12.1577 8.79935 13.9743 8.79935H15.5577C17.3743 8.79935 18.3327 7.84102 18.3327 6.02435V4.44102C18.3327 2.62435 17.3743 1.66602 15.5577 1.66602ZM6.03268 11.191H4.44935C2.62435 11.191 1.66602 12.1493 1.66602 13.966V15.5493C1.66602 17.3743 2.62435 18.3327 4.44102 18.3327H6.02435C7.84102 18.3327 8.79935 17.3743 8.79935 15.5577V13.9743C8.80768 12.1494 7.84935 11.191 6.03268 11.191ZM5.24102 8.81602C5.71049 8.81602 6.17537 8.72355 6.60911 8.54388C7.04285 8.36422 7.43695 8.10089 7.76892 7.76892C8.10089 7.43695 8.36422 7.04285 8.54389 6.60911C8.72355 6.17537 8.81602 5.71049 8.81602 5.24102C8.81602 4.77154 8.72355 4.30666 8.54389 3.87292C8.36422 3.43918 8.10089 3.04508 7.76892 2.71311C7.43695 2.38114 7.04285 2.11781 6.60911 1.93815C6.17537 1.75849 5.71049 1.66602 5.24102 1.66602C4.29287 1.66602 3.38355 2.04267 2.71311 2.71311C2.04267 3.38355 1.66602 4.29287 1.66602 5.24102C1.66602 6.18916 2.04267 7.09848 2.71311 7.76892C3.38355 8.43937 4.29287 8.81602 5.24102 8.81602ZM14.7577 18.3344C15.7058 18.3344 16.6151 17.9577 17.2856 17.2873C17.956 16.6168 18.3327 15.7075 18.3327 14.7593C18.3327 13.8112 17.956 12.9019 17.2856 12.2314C16.6151 11.561 15.7058 11.1843 14.7577 11.1843C13.8095 11.1843 12.9002 11.561 12.2298 12.2314C11.5593 12.9019 11.1827 13.8112 11.1827 14.7593C11.1827 15.7075 11.5593 16.6168 12.2298 17.2873C12.9002 17.9577 13.8095 18.3344 14.7577 18.3344Z" fill="#757575"/>
</svg>
