<svg width="20" height="20" viewBox="0 0 20 20" fill="none" xmlns="http://www.w3.org/2000/svg">
<path d="M11.9585 1.66602H8.0418C7.17513 1.66602 6.4668 2.36602 6.4668 3.23268V4.01602C6.4668 4.88268 7.1668 5.58268 8.03346 5.58268H11.9585C12.8251 5.58268 13.5251 4.88268 13.5251 4.01602V3.23268C13.5335 2.36602 12.8251 1.66602 11.9585 1.66602Z" fill="#757575"/>
<path d="M14.3672 4.01689C14.3672 5.34189 13.2839 6.42523 11.9589 6.42523H8.04219C6.71719 6.42523 5.63386 5.34189 5.63386 4.01689C5.63386 3.55023 5.13385 3.25856 4.71719 3.47523C4.12032 3.79308 3.62118 4.26735 3.27326 4.84721C2.92535 5.42707 2.74176 6.09067 2.74219 6.76689V14.6086C2.74219 16.6586 4.41719 18.3336 6.46719 18.3336H13.5339C15.5839 18.3336 17.2589 16.6586 17.2589 14.6086V6.76689C17.2589 5.34189 16.4589 4.10023 15.2839 3.47523C14.8672 3.25856 14.3672 3.55023 14.3672 4.01689ZM10.3172 14.1252H6.66719C6.32552 14.1252 6.04219 13.8419 6.04219 13.5002C6.04219 13.1586 6.32552 12.8752 6.66719 12.8752H10.3172C10.6589 12.8752 10.9422 13.1586 10.9422 13.5002C10.9422 13.8419 10.6589 14.1252 10.3172 14.1252ZM12.5005 10.7919H6.66719C6.32552 10.7919 6.04219 10.5086 6.04219 10.1669C6.04219 9.82523 6.32552 9.54189 6.66719 9.54189H12.5005C12.8422 9.54189 13.1255 9.82523 13.1255 10.1669C13.1255 10.5086 12.8422 10.7919 12.5005 10.7919Z" fill="#757575"/>
</svg>
