<svg width="20" height="20" viewBox="0 0 20 20" fill="none" xmlns="http://www.w3.org/2000/svg">
<path d="M16.666 4.99935V5.19935H12.391C9.91602 5.19935 8.76602 6.34935 8.76602 8.82435V13.0827H8.12435V16.041H8.76602V17.291H4.12435C3.78268 17.291 3.49935 17.0077 3.49935 16.666C3.49935 16.3243 3.78268 16.041 4.12435 16.041H6.87435V13.0827H4.99935C2.39102 13.0827 1.69102 12.441 1.66602 9.91601V4.99935C1.66602 2.33268 2.33268 1.66602 4.99935 1.66602H13.3327C15.9993 1.66602 16.666 2.33268 16.666 4.99935Z" fill="#757575"/>
<path d="M16.6656 6.48893C16.4573 6.46393 16.2156 6.44727 15.9573 6.44727H12.3906C10.6073 6.44727 10.0156 7.03893 10.0156 8.82227V16.0389C10.024 16.5556 10.0823 16.9639 10.2073 17.2889C10.499 18.0473 11.1573 18.3306 12.3906 18.3306H15.9573C17.7406 18.3306 18.3323 17.7389 18.3323 15.9556V8.82227C18.3323 7.29727 17.899 6.64727 16.6656 6.48893ZM14.174 8.4056C14.899 8.4056 15.4823 8.98893 15.4823 9.71393C15.4823 10.4389 14.899 11.0223 14.174 11.0223C13.449 11.0223 12.8656 10.4389 12.8656 9.71393C12.8656 8.98893 13.449 8.4056 14.174 8.4056ZM14.174 15.9556C13.1906 15.9556 12.3906 15.1556 12.3906 14.1723C12.3911 13.8307 12.4895 13.4965 12.6743 13.2092C12.859 12.9219 13.1223 12.6937 13.4328 12.5516C13.7434 12.4094 14.0882 12.3594 14.4264 12.4074C14.7646 12.4554 15.0819 12.5994 15.3406 12.8223C15.7156 13.1556 15.9573 13.6389 15.9573 14.1723C15.9573 15.1556 15.1573 15.9556 14.174 15.9556Z" fill="#757575"/>
<path d="M16.6656 6.48893C16.4573 6.46393 16.2156 6.44727 15.9573 6.44727H12.3906C10.6073 6.44727 10.0156 7.03893 10.0156 8.82227V16.0389C10.024 16.5556 10.0823 16.9639 10.2073 17.2889C10.499 18.0473 11.1573 18.3306 12.3906 18.3306H15.9573C17.7406 18.3306 18.3323 17.7389 18.3323 15.9556V8.82227C18.3323 7.29727 17.899 6.64727 16.6656 6.48893ZM14.174 8.4056C14.899 8.4056 15.4823 8.98893 15.4823 9.71393C15.4823 10.4389 14.899 11.0223 14.174 11.0223C13.449 11.0223 12.8656 10.4389 12.8656 9.71393C12.8656 8.98893 13.449 8.4056 14.174 8.4056ZM14.174 15.9556C13.1906 15.9556 12.3906 15.1556 12.3906 14.1723C12.3911 13.8307 12.4895 13.4965 12.6743 13.2092C12.859 12.9219 13.1223 12.6937 13.4328 12.5516C13.7434 12.4094 14.0882 12.3594 14.4264 12.4074C14.7646 12.4554 15.0819 12.5994 15.3406 12.8223C15.7156 13.1556 15.9573 13.6389 15.9573 14.1723C15.9573 15.1556 15.1573 15.9556 14.174 15.9556Z" fill="#757575"/>
</svg>
