<svg width="20" height="20" viewBox="0 0 20 20" fill="none" xmlns="http://www.w3.org/2000/svg">
<path d="M18.3327 18.9577H4.16602C2.44102 18.9577 1.04102 17.5577 1.04102 15.8327V1.66602C1.04102 1.32435 1.32435 1.04102 1.66602 1.04102C2.00768 1.04102 2.29102 1.32435 2.29102 1.66602V15.8327C2.29102 16.866 3.13268 17.7077 4.16602 17.7077H18.3327C18.6743 17.7077 18.9577 17.991 18.9577 18.3327C18.9577 18.6743 18.6743 18.9577 18.3327 18.9577Z" fill="#757575"/>
<path d="M4.16594 14.7922C4.02427 14.7922 3.87427 14.7422 3.7576 14.6422C3.63247 14.5333 3.55528 14.3796 3.5428 14.2142C3.53032 14.0488 3.58355 13.8852 3.69094 13.7588L7.51594 9.29217C7.9326 8.80884 8.5326 8.51717 9.16594 8.49217C9.79927 8.4755 10.4243 8.70884 10.8743 9.15884L11.6659 9.9505C11.8743 10.1588 12.1409 10.2588 12.4409 10.2588C12.7326 10.2505 12.9993 10.1172 13.1909 9.89217L17.0159 5.4255C17.2409 5.16717 17.6326 5.13384 17.8993 5.35884C18.1576 5.58384 18.1909 5.9755 17.9659 6.24217L14.1409 10.7088C13.7243 11.1922 13.1243 11.4838 12.4909 11.5088C12.1758 11.5198 11.8617 11.4664 11.568 11.3517C11.2742 11.2371 11.007 11.0637 10.7826 10.8422L9.99927 10.0505C9.79094 9.84217 9.51594 9.73384 9.22427 9.74217C8.9326 9.7505 8.66594 9.88384 8.47427 10.1088L4.64927 14.5755C4.58778 14.6427 4.51317 14.6966 4.43004 14.7339C4.34692 14.7712 4.25703 14.791 4.16594 14.7922Z" fill="#757575"/>
</svg>
