<svg width="20" height="20" viewBox="0 0 20 20" fill="none" xmlns="http://www.w3.org/2000/svg">
<path d="M17.7077 7.62604C15.7827 4.60104 12.966 2.85938 9.99935 2.85938C8.51602 2.85938 7.07435 3.29271 5.75768 4.10104C4.44102 4.91771 3.25768 6.10937 2.29102 7.62604C1.45768 8.93437 1.45768 11.0594 2.29102 12.3677C4.21602 15.401 7.03268 17.1344 9.99935 17.1344C11.4827 17.1344 12.9243 16.701 14.241 15.8927C15.5577 15.076 16.741 13.8844 17.7077 12.3677C18.541 11.0677 18.541 8.93437 17.7077 7.62604ZM9.99935 13.3677C8.13268 13.3677 6.63268 11.8594 6.63268 10.001C6.63268 8.14271 8.13268 6.63437 9.99935 6.63437C11.866 6.63437 13.366 8.14271 13.366 10.001C13.366 11.8594 11.866 13.3677 9.99935 13.3677Z" fill="#757575"/>
<path d="M9.99831 7.61719C9.36731 7.61719 8.76216 7.86785 8.31598 8.31403C7.8698 8.76021 7.61914 9.36536 7.61914 9.99635C7.61914 10.6273 7.8698 11.2325 8.31598 11.6787C8.76216 12.1249 9.36731 12.3755 9.99831 12.3755C11.3066 12.3755 12.3816 11.3089 12.3816 10.0005C12.3816 8.69219 11.3066 7.61719 9.99831 7.61719Z" fill="#757575"/>
</svg>
