<svg width="20" height="20" viewBox="0 0 20 20" fill="none" xmlns="http://www.w3.org/2000/svg">
<path d="M17.916 12.916C18.1493 12.916 18.3327 13.0993 18.3327 13.3327V14.166C18.3327 15.5493 17.216 16.666 15.8327 16.666C15.8327 15.291 14.7077 14.166 13.3327 14.166C11.9577 14.166 10.8327 15.291 10.8327 16.666H9.16602C9.16602 15.291 8.04102 14.166 6.66602 14.166C5.29102 14.166 4.16602 15.291 4.16602 16.666C2.78268 16.666 1.66602 15.5493 1.66602 14.166V12.4993C1.66602 12.041 2.04102 11.666 2.49935 11.666H10.416C10.9685 11.666 11.4985 11.4465 11.8892 11.0558C12.2799 10.6651 12.4993 10.1352 12.4993 9.58268V4.99935C12.4993 4.54102 12.8743 4.16602 13.3327 4.16602H14.0327C14.6327 4.16602 15.1827 4.49102 15.4827 5.00768L16.016 5.94102C16.091 6.07435 15.991 6.24935 15.8327 6.24935C15.2801 6.24935 14.7502 6.46884 14.3595 6.85954C13.9688 7.25024 13.7493 7.78015 13.7493 8.33268V10.8327C13.7493 11.3852 13.9688 11.9151 14.3595 12.3058C14.7502 12.6965 15.2801 12.916 15.8327 12.916H17.916Z" fill="#757575"/>
<path d="M6.66732 18.3327C7.10934 18.3327 7.53327 18.1571 7.84583 17.8445C8.15839 17.532 8.33398 17.108 8.33398 16.666C8.33398 16.224 8.15839 15.8001 7.84583 15.4875C7.53327 15.1749 7.10934 14.9993 6.66732 14.9993C6.22529 14.9993 5.80137 15.1749 5.48881 15.4875C5.17625 15.8001 5.00065 16.224 5.00065 16.666C5.00065 17.108 5.17625 17.532 5.48881 17.8445C5.80137 18.1571 6.22529 18.3327 6.66732 18.3327ZM13.334 18.3327C13.776 18.3327 14.1999 18.1571 14.5125 17.8445C14.8251 17.532 15.0007 17.108 15.0007 16.666C15.0007 16.224 14.8251 15.8001 14.5125 15.4875C14.1999 15.1749 13.776 14.9993 13.334 14.9993C12.892 14.9993 12.468 15.1749 12.1555 15.4875C11.8429 15.8001 11.6673 16.224 11.6673 16.666C11.6673 17.108 11.8429 17.532 12.1555 17.8445C12.468 18.1571 12.892 18.3327 13.334 18.3327ZM18.334 10.441V11.666H15.834C15.3757 11.666 15.0007 11.291 15.0007 10.8327V8.33268C15.0007 7.87435 15.3757 7.49935 15.834 7.49935H16.909L18.1173 9.61602C18.259 9.86602 18.334 10.1493 18.334 10.441ZM10.9007 1.66602H4.74232C4.02961 1.66622 3.3391 1.91398 2.78885 2.36695C2.2386 2.81992 1.86278 3.44996 1.72565 4.14935H5.36732C5.68398 4.14935 5.93398 4.40768 5.93398 4.72435C5.93398 5.04102 5.68398 5.29102 5.36732 5.29102H1.66732V6.44102H3.83398C4.15065 6.44102 4.40898 6.69935 4.40898 7.01602C4.40898 7.33268 4.15065 7.58268 3.83398 7.58268H1.66732V8.73268H2.30898C2.62565 8.73268 2.88398 8.99102 2.88398 9.30768C2.88398 9.62435 2.62565 9.87435 2.30898 9.87435H1.66732V10.066C1.66732 10.5243 2.04232 10.8993 2.50065 10.8993H10.1257C10.9757 10.8993 11.6673 10.2077 11.6673 9.35768V2.43268C11.6673 2.00768 11.3257 1.66602 10.9007 1.66602ZM1.72565 4.14935H0.783984C0.467318 4.14935 0.208984 4.40768 0.208984 4.72435C0.208984 5.04102 0.467318 5.29102 0.783984 5.29102H1.66732V4.74102C1.66732 4.54102 1.69232 4.34102 1.72565 4.14935ZM1.54232 6.44102H0.783984C0.467318 6.44102 0.208984 6.69935 0.208984 7.01602C0.208984 7.33268 0.467318 7.58268 0.783984 7.58268H1.66732V6.44102H1.54232ZM1.54232 8.73268H0.783984C0.467318 8.73268 0.208984 8.99102 0.208984 9.30768C0.208984 9.62435 0.467318 9.87435 0.783984 9.87435H1.66732V8.73268H1.54232Z" fill="#757575"/>
</svg>
