<svg width="49" height="50" viewBox="0 0 49 50" fill="none" xmlns="http://www.w3.org/2000/svg">
<path opacity="0.4" d="M18.3737 4.25537C13.0245 4.25537 8.67578 8.60412 8.67578 13.9533C8.67578 19.2004 12.7795 23.447 18.1287 23.6308C18.292 23.6104 18.4554 23.6104 18.5779 23.6308H18.7208C21.2307 23.547 23.6097 22.4905 25.3547 20.6845C27.0998 18.8785 28.0741 16.4646 28.0716 13.9533C28.0716 8.60412 23.7229 4.25537 18.3737 4.25537Z" fill="#66EBA9"/>
<path d="M28.747 29.0566C23.0507 25.2591 13.7611 25.2591 8.02404 29.0566C5.43112 30.792 4.00195 33.14 4.00195 35.6512C4.00195 38.1625 5.43112 40.49 8.00362 42.205C10.862 44.1241 14.6186 45.0837 18.3753 45.0837C22.132 45.0837 25.8886 44.1241 28.747 42.205C31.3195 40.4695 32.7486 38.142 32.7486 35.6104C32.7282 33.0991 31.3195 30.7716 28.747 29.0566Z" fill="#66EBA9"/>
<path opacity="0.4" d="M40.8116 15.1533C41.1383 19.1141 38.3208 22.585 34.4212 23.0546H34.3191C34.1966 23.0546 34.0741 23.0546 33.9721 23.0954C31.9916 23.1975 30.1746 22.5646 28.8066 21.4008C30.9096 19.5225 32.1141 16.705 31.8691 13.6425C31.7291 12.05 31.1882 10.5188 30.2971 9.19164C31.3669 8.67118 32.5472 8.4188 33.7363 8.45628C34.9254 8.49375 36.0876 8.81995 37.1225 9.40674C38.1574 9.99352 39.034 10.8233 39.6767 11.8244C40.3195 12.8256 40.709 13.9681 40.8116 15.1533Z" fill="#66EBA9"/>
<path d="M44.8939 34.0441C44.7305 36.0245 43.4647 37.7395 41.3414 38.9033C39.2997 40.0262 36.7272 40.557 34.1751 40.4958C35.6451 39.1687 36.5026 37.5149 36.666 35.7591C36.8701 33.2274 35.6655 30.7978 33.2564 28.8583C31.8885 27.7762 30.296 26.9187 28.5605 26.2858C33.0726 24.9791 38.7485 25.857 42.2397 28.6745C44.118 30.1853 45.0776 32.0841 44.8939 34.0441Z" fill="#66EBA9"/>
</svg>
