<svg width="49" height="50" viewBox="0 0 49 50" fill="none" xmlns="http://www.w3.org/2000/svg">
<path opacity="0.4" d="M45.2881 28.0593C44.9818 24.6905 44.0835 21.0972 37.5297 21.0972H11.476C4.92228 21.0972 4.04436 24.6905 3.7177 28.0593L2.57436 40.493C2.43145 42.0447 2.94186 43.5963 4.00353 44.7601C5.08561 45.9443 6.61686 46.618 8.2502 46.618H12.0885C15.396 46.618 16.0289 44.7192 16.4373 43.4738L16.8456 42.2488C17.3152 40.8401 17.4377 40.493 19.2752 40.493H29.7285C31.566 40.493 31.6273 40.6972 32.1581 42.2488L32.5664 43.4738C32.9748 44.7192 33.6077 46.618 36.9152 46.618H40.7535C42.3665 46.618 43.9181 45.9443 45.0002 44.7601C46.0619 43.5963 46.5723 42.0447 46.4294 40.493L45.2881 28.0593Z" fill="#63A1FD"/>
<path d="M42.875 14.967H40.7925L40.0167 11.2716C39.2817 7.6987 37.7504 4.41162 31.6663 4.41162H17.3337C11.2496 4.41162 9.71833 7.6987 8.98333 11.2716L8.2075 14.967H6.125C5.28792 14.967 4.59375 15.6612 4.59375 16.4983C4.59375 17.3354 5.28792 18.0295 6.125 18.0295H7.57458L6.71708 22.1129C7.81958 21.48 9.35083 21.092 11.4742 21.092H37.5258C39.6492 21.092 41.1804 21.48 42.2829 22.1129L41.4254 18.0295H42.875C43.7121 18.0295 44.4062 17.3354 44.4062 16.4983C44.4062 15.6612 43.7121 14.967 42.875 14.967ZM18.375 32.3253H12.25C11.4129 32.3253 10.7188 31.6311 10.7188 30.794C10.7188 29.957 11.4129 29.2628 12.25 29.2628H18.375C19.2121 29.2628 19.9063 29.957 19.9063 30.794C19.9063 31.6311 19.2121 32.3253 18.375 32.3253ZM36.75 32.3253H30.625C29.7879 32.3253 29.0938 31.6311 29.0938 30.794C29.0938 29.957 29.7879 29.2628 30.625 29.2628H36.75C37.5871 29.2628 38.2812 29.957 38.2812 30.794C38.2812 31.6311 37.5871 32.3253 36.75 32.3253Z" fill="#A9CBFF"/>
</svg>
