<svg width="49" height="50" viewBox="0 0 49 50" fill="none" xmlns="http://www.w3.org/2000/svg">
<g opacity="0.6">
<path opacity="0.6" d="M35.0084 20.5853C35.5499 20.5853 36.0692 20.3702 36.4521 19.9873C36.835 19.6044 37.0501 19.0851 37.0501 18.5437C37.0501 18.0022 36.835 17.4829 36.4521 17.1C36.0692 16.7171 35.5499 16.502 35.0084 16.502C34.4669 16.502 33.9476 16.7171 33.5647 17.1C33.1819 17.4829 32.9668 18.0022 32.9668 18.5437C32.9668 19.0851 33.1819 19.6044 33.5647 19.9873C33.9476 20.3702 34.4669 20.5853 35.0084 20.5853ZM35.0084 32.8353C35.5499 32.8353 36.0692 32.6202 36.4521 32.2373C36.835 31.8544 37.0501 31.3351 37.0501 30.7937C37.0501 30.2522 36.835 29.7329 36.4521 29.35C36.0692 28.9671 35.5499 28.752 35.0084 28.752C34.4669 28.752 33.9476 28.9671 33.5647 29.35C33.1819 29.7329 32.9668 30.2522 32.9668 30.7937C32.9668 31.3351 33.1819 31.8544 33.5647 32.2373C33.9476 32.6202 34.4669 32.8353 35.0084 32.8353ZM40.3208 26.7103C40.8623 26.7103 41.3816 26.4952 41.7645 26.1123C42.1474 25.7294 42.3625 25.2101 42.3625 24.6687C42.3625 24.1272 42.1474 23.6079 41.7645 23.225C41.3816 22.8421 40.8623 22.627 40.3208 22.627C39.7794 22.627 39.26 22.8421 38.8772 23.225C38.4943 23.6079 38.2792 24.1272 38.2792 24.6687C38.2792 25.2101 38.4943 25.7294 38.8772 26.1123C39.26 26.4952 39.7794 26.7103 40.3208 26.7103ZM13.8792 20.5853C14.4207 20.5853 14.94 20.3702 15.3229 19.9873C15.7058 19.6044 15.9209 19.0851 15.9209 18.5437C15.9209 18.0022 15.7058 17.4829 15.3229 17.1C14.94 16.7171 14.4207 16.502 13.8792 16.502C13.3377 16.502 12.8184 16.7171 12.4355 17.1C12.0526 17.4829 11.8375 18.0022 11.8375 18.5437C11.8375 19.0851 12.0526 19.6044 12.4355 19.9873C12.8184 20.3702 13.3377 20.5853 13.8792 20.5853ZM13.8792 32.8353C14.4207 32.8353 14.94 32.6202 15.3229 32.2373C15.7058 31.8544 15.9209 31.3351 15.9209 30.7937C15.9209 30.2522 15.7058 29.7329 15.3229 29.35C14.94 28.9671 14.4207 28.752 13.8792 28.752C13.3377 28.752 12.8184 28.9671 12.4355 29.35C12.0526 29.7329 11.8375 30.2522 11.8375 30.7937C11.8375 31.3351 12.0526 31.8544 12.4355 32.2373C12.8184 32.6202 13.3377 32.8353 13.8792 32.8353ZM8.57292 26.7103C9.1144 26.7103 9.63371 26.4952 10.0166 26.1123C10.3995 25.7294 10.6146 25.2101 10.6146 24.6687C10.6146 24.1272 10.3995 23.6079 10.0166 23.225C9.63371 22.8421 9.1144 22.627 8.57292 22.627C8.03143 22.627 7.51213 22.8421 7.12924 23.225C6.74635 23.6079 6.53125 24.1272 6.53125 24.6687C6.53125 25.2101 6.74635 25.7294 7.12924 26.1123C7.51213 26.4952 8.03143 26.7103 8.57292 26.7103ZM32.4563 12.827C32.9978 12.827 33.5171 12.6119 33.9 12.229C34.2829 11.8461 34.498 11.3268 34.498 10.7853C34.498 10.2438 34.2829 9.72453 33.9 9.34164C33.5171 8.95876 32.9978 8.74365 32.4563 8.74365C31.9149 8.74365 31.3955 8.95876 31.0127 9.34164C30.6298 9.72453 30.4147 10.2438 30.4147 10.7853C30.4147 11.3268 30.6298 11.8461 31.0127 12.229C31.3955 12.6119 31.9149 12.827 32.4563 12.827ZM16.5354 12.827C17.0769 12.827 17.5962 12.6119 17.9791 12.229C18.362 11.8461 18.5771 11.3268 18.5771 10.7853C18.5771 10.2438 18.362 9.72453 17.9791 9.34164C17.5962 8.95876 17.0769 8.74365 16.5354 8.74365C15.9939 8.74365 15.4746 8.95876 15.0917 9.34164C14.7089 9.72453 14.4938 10.2438 14.4938 10.7853C14.4938 11.3268 14.7089 11.8461 15.0917 12.229C15.4746 12.6119 15.9939 12.827 16.5354 12.827ZM24.598 14.4603C25.1394 14.4603 25.6587 14.2452 26.0416 13.8623C26.4245 13.4794 26.6396 12.9601 26.6396 12.4187C26.6396 11.8772 26.4245 11.3579 26.0416 10.975C25.6587 10.5921 25.1394 10.377 24.598 10.377C24.0565 10.377 23.5372 10.5921 23.1543 10.975C22.7714 11.3579 22.5563 11.8772 22.5563 12.4187C22.5563 12.9601 22.7714 13.4794 23.1543 13.8623C23.5372 14.2452 24.0565 14.4603 24.598 14.4603ZM32.4563 41.002C32.9978 41.002 33.5171 40.7869 33.9 40.404C34.2829 40.0211 34.498 39.5018 34.498 38.9603C34.498 38.4188 34.2829 37.8995 33.9 37.5166C33.5171 37.1338 32.9978 36.9186 32.4563 36.9186C31.9149 36.9186 31.3955 37.1338 31.0127 37.5166C30.6298 37.8995 30.4147 38.4188 30.4147 38.9603C30.4147 39.5018 30.6298 40.0211 31.0127 40.404C31.3955 40.7869 31.9149 41.002 32.4563 41.002ZM16.5354 41.002C17.0769 41.002 17.5962 40.7869 17.9791 40.404C18.362 40.0211 18.5771 39.5018 18.5771 38.9603C18.5771 38.4188 18.362 37.8995 17.9791 37.5166C17.5962 37.1338 17.0769 36.9186 16.5354 36.9186C15.9939 36.9186 15.4746 37.1338 15.0917 37.5166C14.7089 37.8995 14.4938 38.4188 14.4938 38.9603C14.4938 39.5018 14.7089 40.0211 15.0917 40.404C15.4746 40.7869 15.9939 41.002 16.5354 41.002ZM24.598 39.3687C25.1394 39.3687 25.6587 39.1535 26.0416 38.7707C26.4245 38.3878 26.6396 37.8685 26.6396 37.327C26.6396 36.7855 26.4245 36.2662 26.0416 35.8833C25.6587 35.5004 25.1394 35.2853 24.598 35.2853C24.0565 35.2853 23.5372 35.5004 23.1543 35.8833C22.7714 36.2662 22.5563 36.7855 22.5563 37.327C22.5563 37.8685 22.7714 38.3878 23.1543 38.7707C23.5372 39.1535 24.0565 39.3687 24.598 39.3687Z" fill="#FF414F"/>
</g>
<path d="M28.0716 21.0959C28.7485 21.0959 29.3976 20.827 29.8762 20.3484C30.3548 19.8698 30.6237 19.2206 30.6237 18.5438C30.6237 17.8669 30.3548 17.2178 29.8762 16.7392C29.3976 16.2606 28.7485 15.9917 28.0716 15.9917C27.3948 15.9917 26.7456 16.2606 26.267 16.7392C25.7884 17.2178 25.5195 17.8669 25.5195 18.5438C25.5195 19.2206 25.7884 19.8698 26.267 20.3484C26.7456 20.827 27.3948 21.0959 28.0716 21.0959ZM20.9258 21.0959C21.6026 21.0959 22.2518 20.827 22.7304 20.3484C23.209 19.8698 23.4779 19.2206 23.4779 18.5438C23.4779 17.8669 23.209 17.2178 22.7304 16.7392C22.2518 16.2606 21.6026 15.9917 20.9258 15.9917C20.2489 15.9917 19.5998 16.2606 19.1212 16.7392C18.6426 17.2178 18.3737 17.8669 18.3737 18.5438C18.3737 19.2206 18.6426 19.8698 19.1212 20.3484C19.5998 20.827 20.2489 21.0959 20.9258 21.0959ZM31.6445 27.2209C32.3214 27.2209 32.9705 26.952 33.4491 26.4734C33.9277 25.9948 34.1966 25.3456 34.1966 24.6688C34.1966 23.9919 33.9277 23.3428 33.4491 22.8642C32.9705 22.3856 32.3214 22.1167 31.6445 22.1167C30.9677 22.1167 30.3185 22.3856 29.8399 22.8642C29.3613 23.3428 29.0924 23.9919 29.0924 24.6688C29.0924 25.3456 29.3613 25.9948 29.8399 26.4734C30.3185 26.952 30.9677 27.2209 31.6445 27.2209ZM17.3529 27.2209C18.0297 27.2209 18.6789 26.952 19.1575 26.4734C19.6361 25.9948 19.9049 25.3456 19.9049 24.6688C19.9049 23.9919 19.6361 23.3428 19.1575 22.8642C18.6789 22.3856 18.0297 22.1167 17.3529 22.1167C16.676 22.1167 16.0269 22.3856 15.5483 22.8642C15.0697 23.3428 14.8008 23.9919 14.8008 24.6688C14.8008 25.3456 15.0697 25.9948 15.5483 26.4734C16.0269 26.952 16.676 27.2209 17.3529 27.2209ZM20.9258 33.3459C21.6026 33.3459 22.2518 33.077 22.7304 32.5984C23.209 32.1198 23.4779 31.4706 23.4779 30.7938C23.4779 30.1169 23.209 29.4678 22.7304 28.9892C22.2518 28.5106 21.6026 28.2417 20.9258 28.2417C20.2489 28.2417 19.5998 28.5106 19.1212 28.9892C18.6426 29.4678 18.3737 30.1169 18.3737 30.7938C18.3737 31.4706 18.6426 32.1198 19.1212 32.5984C19.5998 33.077 20.2489 33.3459 20.9258 33.3459ZM28.0716 33.3459C28.7485 33.3459 29.3976 33.077 29.8762 32.5984C30.3548 32.1198 30.6237 31.4706 30.6237 30.7938C30.6237 30.1169 30.3548 29.4678 29.8762 28.9892C29.3976 28.5106 28.7485 28.2417 28.0716 28.2417C27.3948 28.2417 26.7456 28.5106 26.267 28.9892C25.7884 29.4678 25.5195 30.1169 25.5195 30.7938C25.5195 31.4706 25.7884 32.1198 26.267 32.5984C26.7456 33.077 27.3948 33.3459 28.0716 33.3459Z" fill="#FF414F"/>
<path opacity="0.4" d="M24.5051 6.96501C23.5047 6.96501 22.7085 6.16876 22.7085 5.16834C22.7085 4.16792 23.5047 3.39209 24.5051 3.39209C25.5055 3.39209 26.3018 4.18834 26.3018 5.18876C26.3018 6.18917 25.5055 6.96501 24.5051 6.96501ZM35.2239 7.52442C34.3664 7.52442 33.6722 6.83026 33.6722 5.99317C33.6722 5.15609 34.3664 4.46192 35.2035 4.46192C36.0405 4.46192 36.7551 5.15609 36.7551 5.99317C36.7551 6.83026 36.0814 7.52442 35.2239 7.52442ZM13.7864 7.52442C13.3803 7.52442 12.9908 7.3631 12.7036 7.07593C12.4165 6.78877 12.2551 6.39929 12.2551 5.99317C12.2551 5.58706 12.4165 5.19758 12.7036 4.91042C12.9908 4.62325 13.3803 4.46192 13.7864 4.46192H13.8068C14.6439 4.46192 15.338 5.15609 15.338 5.99317C15.338 6.83026 14.6439 7.52442 13.7864 7.52442ZM24.5051 45.8649C23.5047 45.8649 22.7085 45.0686 22.7085 44.0682C22.7085 43.0678 23.5047 42.2716 24.5051 42.2716C25.5055 42.2716 26.3018 43.0678 26.3018 44.0682C26.3018 45.0686 25.5055 45.8649 24.5051 45.8649ZM35.2239 44.7848C34.3664 44.7848 33.6722 44.0907 33.6722 43.2536C33.6722 42.4165 34.3664 41.7223 35.2035 41.7223C36.0405 41.7223 36.7551 42.4165 36.7551 43.2536C36.7551 44.0907 36.0814 44.7848 35.2239 44.7848ZM13.7864 44.7848C13.3803 44.7848 12.9908 44.6235 12.7036 44.3363C12.4165 44.0492 12.2551 43.6597 12.2551 43.2536C12.2551 42.8475 12.4165 42.458 12.7036 42.1708C12.9908 41.8837 13.3803 41.7223 13.7864 41.7223H13.8068C14.6439 41.7223 15.338 42.4165 15.338 43.2536C15.338 44.0907 14.6439 44.7848 13.7864 44.7848ZM3.16971 26.469C2.69672 26.4691 2.2428 26.2826 1.90644 25.9501C1.57008 25.6175 1.37842 25.1658 1.37305 24.6928V24.6724C1.37305 23.6924 2.1693 22.8757 3.16971 22.8757C4.17013 22.8757 4.94596 23.672 4.94596 24.6724C4.94596 25.6728 4.14971 26.469 3.16971 26.469ZM7.66138 36.4058C6.8243 36.4058 6.13013 35.7117 6.13013 34.8746V34.8542C6.13013 34.0171 6.8243 33.3229 7.66138 33.3229C8.49846 33.3229 9.19263 34.0171 9.19263 34.8542C9.19263 35.6913 8.49846 36.4058 7.66138 36.4058ZM7.66138 16.0178C6.8243 16.0178 6.13013 15.3236 6.13013 14.4865C6.13013 13.6494 6.8243 12.9553 7.66138 12.9553C8.49846 12.9553 9.19263 13.629 9.19263 14.4661V14.4865C9.19263 15.3236 8.49846 16.0178 7.66138 16.0178ZM45.9426 26.469C45.4696 26.4691 45.0157 26.2826 44.6794 25.9501C44.343 25.6175 44.1513 25.1658 44.146 24.6928V24.6724C44.146 23.6924 44.9422 22.8757 45.9426 22.8757C46.943 22.8757 47.7393 23.672 47.7393 24.6724C47.7393 25.6728 46.9226 26.469 45.9426 26.469ZM41.451 36.4058C40.6139 36.4058 39.9197 35.7321 39.9197 34.8746V34.8542C39.9197 34.0171 40.6139 33.3229 41.451 33.3229C42.288 33.3229 42.9822 34.0171 42.9822 34.8542C42.9822 35.6913 42.288 36.4058 41.451 36.4058ZM41.451 16.0178C40.6139 16.0178 39.9197 15.3236 39.9197 14.4865C39.9197 13.6494 40.6139 12.9553 41.451 12.9553C42.288 12.9553 42.9822 13.629 42.9822 14.4661V14.4865C42.9822 15.3236 42.288 16.0178 41.451 16.0178Z" fill="#FF414F"/>
</svg>
