<svg width="49" height="50" viewBox="0 0 49 50" fill="none" xmlns="http://www.w3.org/2000/svg">
<path opacity="0.4" d="M33.0533 4.25342H15.9441C8.51245 4.25342 4.08203 8.68383 4.08203 16.1155V33.2043C4.08203 40.6563 8.51245 45.0867 15.9441 45.0867H33.0329C40.4645 45.0867 44.895 40.6563 44.895 33.2247V16.1155C44.9154 8.68383 40.485 4.25342 33.0533 4.25342Z" fill="#FF50E3"/>
<path d="M31.6495 20.8539C32.6675 20.8539 33.6438 20.4495 34.3636 19.7297C35.0835 19.0099 35.4879 18.0336 35.4879 17.0156C35.4879 15.9976 35.0835 15.0213 34.3636 14.3015C33.6438 13.5816 32.6675 13.1772 31.6495 13.1772C30.6315 13.1772 29.6552 13.5816 28.9354 14.3015C28.2156 15.0213 27.8112 15.9976 27.8112 17.0156C27.8112 18.0336 28.2156 19.0099 28.9354 19.7297C29.6552 20.4495 30.6315 20.8539 31.6495 20.8539ZM17.3579 20.8539C18.3759 20.8539 19.3521 20.4495 20.072 19.7297C20.7918 19.0099 21.1962 18.0336 21.1962 17.0156C21.1962 15.9976 20.7918 15.0213 20.072 14.3015C19.3521 13.5816 18.3759 13.1772 17.3579 13.1772C16.3399 13.1772 15.3636 13.5816 14.6438 14.3015C13.9239 15.0213 13.5195 15.9976 13.5195 17.0156C13.5195 18.0336 13.9239 19.0099 14.6438 19.7297C15.3636 20.4495 16.3399 20.8539 17.3579 20.8539ZM31.8537 26.5522H17.1537C15.7245 26.5522 14.5608 27.716 14.5608 29.1655C14.5608 34.6576 19.032 39.1289 24.5241 39.1289C30.0162 39.1289 34.4874 34.6576 34.4874 29.1655C34.467 27.7364 33.2829 26.5522 31.8537 26.5522Z" fill="#FF8AED"/>
</svg>
