<svg width="24" height="24" viewBox="0 0 24 24" fill="none" xmlns="http://www.w3.org/2000/svg">
<path d="M4.00022 8.00008H3.00022M21.0002 8.00008H20.0002M12.0002 3.00008V5.00008M10.5002 5.00008H13.5002M6.00022 15.0001H9.00022M15.0002 15.0001H18.0002M15.5102 2.83008H8.49022C6.00022 2.83008 5.45022 4.07008 5.13022 5.59008L4.00022 11.0001H20.0002L18.8702 5.59008C18.5502 4.07008 18.0002 2.83008 15.5102 2.83008ZM21.9902 19.8201C22.1002 20.9901 21.1602 22.0001 19.9602 22.0001H18.0802C17.0002 22.0001 16.8502 21.5401 16.6602 20.9701L16.4602 20.3701C16.1802 19.5501 16.0002 19.0001 14.5602 19.0001H9.44022C8.00022 19.0001 7.79022 19.6201 7.54022 20.3701L7.34022 20.9701C7.15022 21.5401 7.00022 22.0001 5.92022 22.0001H4.04022C2.84022 22.0001 1.90022 20.9901 2.01022 19.8201L2.57022 13.7301C2.71022 12.2301 3.00022 11.0001 5.62022 11.0001H18.3802C21.0002 11.0001 21.2902 12.2301 21.4302 13.7301L21.9902 19.8201Z" stroke="#FF9900" stroke-width="1.5" stroke-linecap="round" stroke-linejoin="round"/>
</svg>
