<svg width="20" height="11" viewBox="0 0 20 11" fill="none" xmlns="http://www.w3.org/2000/svg">
<path d="M18.7812 4.55084L14.568 0.322851C14.3587 0.115932 14.0761 -0.000109273 13.7818 -0.000109221C13.4874 -0.00010917 13.2049 0.115932 12.9955 0.322852C12.5653 0.753069 12.5653 1.46515 12.9955 1.89537L15.3098 4.20964L1.11263 4.20964C0.504393 4.20964 8.24247e-07 4.71403 9.30594e-07 5.32227C1.03694e-06 5.93051 0.504393 6.4349 1.11263 6.4349L15.3098 6.4349L12.9955 8.764C12.5653 9.19422 12.5653 9.9063 12.9955 10.3365C13.218 10.559 13.4999 10.6629 13.7818 10.6629C14.0636 10.6629 14.3455 10.559 14.568 10.3365L18.7812 6.10853C19.2262 5.67831 19.2262 4.98106 18.7812 4.55084Z" fill="#66EBA9"/>
</svg>
