<svg width="20" height="11" viewBox="0 0 20 11" fill="none" xmlns="http://www.w3.org/2000/svg">
<path d="M1.21881 6.44914L5.43197 10.6771C5.64135 10.8841 5.92385 11.0001 6.21823 11.0001C6.5126 11.0001 6.7951 10.8841 7.00448 10.6771C7.4347 10.2469 7.4347 9.53483 7.00448 9.10461L4.69021 6.79034L18.8874 6.79034C19.4956 6.79034 20 6.28595 20 5.67771C20 5.06948 19.4956 4.56508 18.8874 4.56508L4.69021 4.56508L7.00448 2.23598C7.4347 1.80576 7.4347 1.09368 7.00448 0.663464C6.78196 0.440937 6.50009 0.337092 6.21822 0.337092C5.93636 0.337092 5.65449 0.440937 5.43196 0.663464L1.21881 4.89146C0.773756 5.32167 0.773756 6.01892 1.21881 6.44914Z" fill="#DCDCDC"/>
</svg>
