<svg width="16" height="16" viewBox="0 0 16 16" fill="none" xmlns="http://www.w3.org/2000/svg">
<path d="M10.6668 8.59998V11.4C10.6668 13.7333 9.7335 14.6666 7.40016 14.6666H4.60016C2.26683 14.6666 1.3335 13.7333 1.3335 11.4V8.59998C1.3335 6.26665 2.26683 5.33331 4.60016 5.33331H7.40016C9.7335 5.33331 10.6668 6.26665 10.6668 8.59998Z" fill="white"/>
<path d="M11.4 1.33331H8.59996C6.54463 1.33331 5.57996 2.06265 5.37996 3.82598C5.33729 4.19465 5.64329 4.49998 6.01463 4.49998H7.39996C10.2 4.49998 11.5 5.79998 11.5 8.59998V9.98531C11.5 10.3566 11.8046 10.662 12.1733 10.62C13.938 10.42 14.6666 9.45531 14.6666 7.39998V4.59998C14.6666 2.26665 13.7333 1.33331 11.4 1.33331Z" fill="white"/>
</svg>
