<svg width="16" height="16" viewBox="0 0 16 16" fill="none" xmlns="http://www.w3.org/2000/svg">
<path d="M10.5338 1.47323C10.2604 1.19989 9.78711 1.38656 9.78711 1.76656V4.09323C9.78711 5.06656 10.6138 5.87323 11.6204 5.87323C12.2538 5.87989 13.1338 5.87989 13.8871 5.87989C14.2671 5.87989 14.4671 5.43323 14.2004 5.16656C13.2404 4.19989 11.5204 2.45989 10.5338 1.47323Z" fill="white"/>
<path d="M13.6665 6.79331H11.7398C10.1598 6.79331 8.87317 5.50665 8.87317 3.92665V1.99998C8.87317 1.63331 8.57317 1.33331 8.2065 1.33331H5.37984C3.3265 1.33331 1.6665 2.66665 1.6665 5.04665V10.9533C1.6665 13.3333 3.3265 14.6666 5.37984 14.6666H10.6198C12.6732 14.6666 14.3332 13.3333 14.3332 10.9533V7.45998C14.3332 7.09331 14.0332 6.79331 13.6665 6.79331ZM7.6665 11.8333H4.99984C4.7265 11.8333 4.49984 11.6066 4.49984 11.3333C4.49984 11.06 4.7265 10.8333 4.99984 10.8333H7.6665C7.93984 10.8333 8.1665 11.06 8.1665 11.3333C8.1665 11.6066 7.93984 11.8333 7.6665 11.8333ZM8.99984 9.16665H4.99984C4.7265 9.16665 4.49984 8.93998 4.49984 8.66665C4.49984 8.39331 4.7265 8.16665 4.99984 8.16665H8.99984C9.27317 8.16665 9.49984 8.39331 9.49984 8.66665C9.49984 8.93998 9.27317 9.16665 8.99984 9.16665Z" fill="white"/>
</svg>
