<svg width="16" height="16" viewBox="0 0 16 16" fill="none" xmlns="http://www.w3.org/2000/svg">
<path d="M4.6665 3.33331C4.6665 2.22665 5.55984 1.33331 6.6665 1.33331H9.33317C10.4398 1.33331 11.3332 2.22665 11.3332 3.33331C11.3332 3.69998 11.0332 3.99998 10.6665 3.99998H5.33317C4.9665 3.99998 4.6665 3.69998 4.6665 3.33331ZM11.8332 9.99998C11.8332 10.2733 11.6065 10.5 11.3332 10.5H10.6665V12.6666C10.6665 13.7733 9.77317 14.6666 8.6665 14.6666H7.33317C6.2265 14.6666 5.33317 13.7733 5.33317 12.6666V10.5H4.6665C4.39317 10.5 4.1665 10.2733 4.1665 9.99998C4.1665 9.72665 4.39317 9.49998 4.6665 9.49998H11.3332C11.6065 9.49998 11.8332 9.72665 11.8332 9.99998Z" fill="white"/>
<path d="M12 4.66669H4C2.66667 4.66669 2 5.33335 2 6.66669V10C2 11.3334 2.66667 12 4 12H4.25C4.48 12 4.66667 11.8134 4.66667 11.5834C4.66667 11.3534 4.474 11.1734 4.25867 11.092C4.03658 11.0081 3.84517 10.8588 3.70972 10.6639C3.57426 10.4689 3.50114 10.2374 3.5 10C3.5 9.36002 4.02667 8.83335 4.66667 8.83335H11.3333C11.9733 8.83335 12.5 9.36002 12.5 10C12.4989 10.2374 12.4257 10.4689 12.2903 10.6639C12.1548 10.8588 11.9634 11.0081 11.7413 11.092C11.526 11.1734 11.3333 11.3534 11.3333 11.5834C11.3333 11.8134 11.52 12 11.75 12H12C13.3333 12 14 11.3334 14 10V6.66669C14 5.33335 13.3333 4.66669 12 4.66669ZM6.66667 7.83335H4.66667C4.39333 7.83335 4.16667 7.60669 4.16667 7.33335C4.16667 7.06002 4.39333 6.83335 4.66667 6.83335H6.66667C6.94 6.83335 7.16667 7.06002 7.16667 7.33335C7.16667 7.60669 6.94 7.83335 6.66667 7.83335Z" fill="white"/>
</svg>
